<svg width="309" height="70" viewBox="0 0 309 70" fill="none" xmlns="http://www.w3.org/2000/svg">
<path d="M41.8193 31.1981C41.8193 32.2979 40.9278 33.1895 39.828 33.1895H37.172C36.0722 33.1895 35.1807 32.2979 35.1807 31.1981V26.5518H41.8193V31.1981ZM35.1807 26.5518H30.5343C29.4345 26.5518 28.543 25.6602 28.543 24.5604V19.9141H33.1893C34.2891 19.9141 35.1807 20.8056 35.1807 21.9054V26.5518ZM48.457 24.5604C48.457 25.6602 47.5655 26.5518 46.4657 26.5518H41.8193V21.9054C41.8193 20.8056 42.7109 19.9141 43.8107 19.9141H48.457V24.5604ZM28.543 19.9141H23.8967C22.7968 19.9141 21.9053 19.0225 21.9053 17.9227V15.2668C21.9053 14.167 22.7968 13.2754 23.8967 13.2754H28.543V19.9141ZM55.0947 17.9227C55.0947 19.0225 54.2032 19.9141 53.1033 19.9141H48.457V13.2754H53.1033C54.2032 13.2754 55.0947 14.167 55.0947 15.2668V17.9227ZM35.1807 11.284C35.1807 12.3838 34.2891 13.2754 33.1893 13.2754H28.543V8.62907C28.543 7.52927 29.4345 6.6377 30.5343 6.6377H35.1807V11.284ZM48.457 13.2754H43.8107C42.7109 13.2754 41.8193 12.3838 41.8193 11.284V6.6377H46.4657C47.5655 6.6377 48.457 7.52927 48.457 8.62907V13.2754ZM41.8193 6.6377H35.1807V1.99138C35.1807 0.89157 36.0722 0 37.172 0H39.828C40.9278 0 41.8193 0.89157 41.8193 1.99138V6.6377Z" fill="white"/>
<path d="M41.8193 67.3084C41.8193 68.4082 40.9278 69.2998 39.828 69.2998H37.172C36.0722 69.2998 35.1807 68.4082 35.1807 67.3084V62.6621H41.8193V67.3084ZM35.1807 62.6621H30.5343C29.4345 62.6621 28.543 61.7705 28.543 60.6707V56.0244H33.1893C34.2891 56.0244 35.1807 56.916 35.1807 58.0158V62.6621ZM48.457 60.6707C48.457 61.7705 47.5655 62.6621 46.4657 62.6621H41.8193V58.0158C41.8193 56.916 42.7109 56.0244 43.8107 56.0244H48.457V60.6707ZM28.543 56.0244H23.8967C22.7968 56.0244 21.9053 55.1328 21.9053 54.033V51.3771C21.9053 50.2773 22.7968 49.3857 23.8967 49.3857H28.543V56.0244ZM55.0947 54.033C55.0947 55.1328 54.2032 56.0244 53.1033 56.0244H48.457V49.3857H53.1033C54.2032 49.3857 55.0947 50.2773 55.0947 51.3771V54.033ZM35.1807 47.3943C35.1807 48.4941 34.2891 49.3857 33.1893 49.3857H28.543V44.7394C28.543 43.6396 29.4345 42.748 30.5343 42.748H35.1807V47.3943ZM48.457 49.3857H43.8107C42.7109 49.3857 41.8193 48.4941 41.8193 47.3943V42.748H46.4657C47.5655 42.748 48.457 43.6396 48.457 44.7394V49.3857ZM41.8193 42.748H35.1807V38.1017C35.1807 37.0019 36.0722 36.1103 37.172 36.1103H39.828C40.9278 36.1103 41.8193 37.0019 41.8193 38.1017V42.748Z" fill="white"/>
<path d="M19.9141 49.2531C19.9141 50.3529 19.0225 51.2445 17.9227 51.2445H15.2677C14.1679 51.2445 13.2764 50.3529 13.2764 49.2531V44.6068H19.9141V49.2531ZM13.2764 44.6068H8.62907C7.52927 44.6068 6.6377 43.7152 6.6377 42.6154V37.9691H11.285C12.3848 37.9691 13.2764 38.8607 13.2764 39.9605V44.6068ZM26.5518 42.6154C26.5518 43.7152 25.6602 44.6068 24.5604 44.6068H19.9141V39.9605C19.9141 38.8607 20.8056 37.9691 21.9054 37.9691H26.5518V42.6154ZM6.6377 37.9691H1.99138C0.89157 37.9691 0 37.0775 0 35.9777V33.3228C0 32.223 0.89157 31.3314 1.99138 31.3314H6.6377V37.9691ZM33.1895 35.9777C33.1895 37.0775 32.2979 37.9691 31.1981 37.9691H26.5518V31.3314H31.1981C32.2979 31.3314 33.1895 32.223 33.1895 33.3228V35.9777ZM13.2764 29.34C13.2764 30.4399 12.3848 31.3314 11.285 31.3314H6.6377V26.6841C6.6377 25.5843 7.52927 24.6927 8.62907 24.6927H13.2764V29.34ZM26.5518 31.3314H21.9054C20.8056 31.3314 19.9141 30.4399 19.9141 29.34V24.6927H24.5604C25.6602 24.6927 26.5518 25.5843 26.5518 26.6841V31.3314ZM19.9141 24.6927H13.2764V20.0464C13.2764 18.9466 14.1679 18.0551 15.2677 18.0551H17.9227C19.0225 18.0551 19.9141 18.9466 19.9141 20.0464V24.6927Z" fill="white"/>
<path d="M63.7241 49.2531C63.7241 50.3529 62.8326 51.2445 61.7327 51.2445H59.0778C57.978 51.2445 57.0864 50.3529 57.0864 49.2531V44.6068H63.7241V49.2531ZM57.0864 44.6068H52.4391C51.3393 44.6068 50.4478 43.7152 50.4478 42.6154V37.9691H55.095C56.1949 37.9691 57.0864 38.8607 57.0864 39.9605V44.6068ZM70.3618 42.6154C70.3618 43.7152 69.4702 44.6068 68.3704 44.6068H63.7241V39.9605C63.7241 38.8607 64.6157 37.9691 65.7155 37.9691H70.3618V42.6154ZM50.4478 37.9691H45.8014C44.7016 37.9691 43.8101 37.0775 43.8101 35.9777V33.3228C43.8101 32.223 44.7016 31.3314 45.8014 31.3314H50.4478V37.9691ZM76.9995 35.9777C76.9995 37.0775 76.1079 37.9691 75.0081 37.9691H70.3618V31.3314H75.0081C76.1079 31.3314 76.9995 32.223 76.9995 33.3228V35.9777ZM57.0864 29.34C57.0864 30.4399 56.1949 31.3314 55.095 31.3314H50.4478V26.6841C50.4478 25.5843 51.3393 24.6927 52.4391 24.6927H57.0864V29.34ZM70.3618 31.3314H65.7155C64.6157 31.3314 63.7241 30.4399 63.7241 29.34V24.6927H68.3704C69.4702 24.6927 70.3618 25.5843 70.3618 26.6841V31.3314ZM63.7241 24.6927H57.0864V20.0464C57.0864 18.9466 57.978 18.0551 59.0778 18.0551H61.7327C62.8326 18.0551 63.7241 18.9466 63.7241 20.0464V24.6927Z" fill="white"/>
<path d="M109.254 57.4164L112.635 61.3989V62H97.6068V61.3989L100.988 57.4164V12.4067L97.6068 8.42417V7.82304H112.635V8.42417L109.254 12.4067V57.4164ZM119.088 62V61.3989L121.718 57.8672V28.9378L119.088 25.1056V24.5044L129.457 22.6259V30.3655C131.636 25.5564 136.07 22.2502 141.48 22.2502C149.22 22.2502 154.78 27.2095 154.78 35.6254V57.8672L157.41 61.3989V62H144.41V61.3989L147.04 57.8672V36.5271C147.04 30.8915 143.96 28.0361 139.301 28.0361C134.642 28.0361 130.584 31.8683 129.457 37.7293V57.8672L132.087 61.3989V62H119.088ZM164.193 62V61.3989L166.823 57.7921V27.5852H159.91V23.8282L166.823 23.0767V18.7185C166.823 10.453 172.909 6.32021 179.747 6.32021C182.602 6.32021 187.111 7.29705 189.215 10.5281L185.683 15.5626H185.007C184.105 12.4067 182.076 10.5281 179.747 10.5281C177.042 10.5281 174.562 12.7824 174.562 17.5914V22.7762L184.105 22.4756L184.331 27.5852H174.562V57.7921L178.094 61.3989V62H164.193ZM200.636 57.7921L203.266 61.3989V62H190.267V61.3989L192.897 57.7921V28.9378L190.267 25.1056V24.5044L200.636 22.6259V57.7921ZM196.579 17.2909C193.798 17.2909 191.619 15.1118 191.619 12.3315C191.619 9.55129 193.798 7.37219 196.579 7.37219C199.509 7.37219 201.688 9.55129 201.688 12.3315C201.688 15.1118 199.509 17.2909 196.579 17.2909ZM215.829 41.787C215.979 51.2548 221.314 56.7401 228.453 56.7401C234.013 56.7401 237.92 53.6593 239.799 48.174L244.082 49.3762C242.279 57.4164 236.042 62.7514 227.025 62.7514C215.303 62.7514 207.939 53.6593 207.939 42.4632C207.939 31.3423 214.852 22.2502 226.349 22.2502C239.498 22.2502 244.383 32.0186 243.781 41.787H215.829ZM226.349 26.2327C220.563 26.2327 216.956 31.3423 216.054 38.0299H235.741C235.366 31.6429 232.059 26.2327 226.349 26.2327ZM259.042 57.8672L261.672 61.3989V62H248.672V61.3989L251.302 57.8672V13.0078L248.672 9.17559V8.57446L259.042 6.69592V57.8672ZM283.783 62.7514C273.563 62.7514 266.35 54.4859 266.35 42.4632C266.35 30.666 274.315 22.2502 285.285 22.2502C289.568 22.2502 293.551 23.9784 296.181 27.2095V13.0078L293.551 9.17559V8.57446L303.845 6.69592V57.7921L306.475 61.3989V62H296.181V54.8616C294.077 59.5955 289.193 62.7514 283.783 62.7514ZM285.586 57.2661C290.921 57.2661 295.354 53.2085 296.181 47.1971V35.7005C294.903 29.9146 291.071 26.5333 286.037 26.5333C279.049 26.5333 274.39 33.3711 274.39 42.4632C274.39 51.1796 278.823 57.2661 285.586 57.2661Z" fill="white"/>
</svg>
